HIERARCHY
ROOT hip
{
	OFFSET 0.000000 0.000000 0.000000 
	CHANNELS 6 Xposition Yposition Zposition Xrotation Zrotation Yrotation
	JOINT abdomen
	{
		OFFSET 0.000000 3.402643 0.000000 
		CHANNELS 3 Xrotation Zrotation Yrotation
		JOINT chest
		{
			OFFSET 0.000000 8.438565 -0.680529 
			CHANNELS 3 Xrotation Zrotation Yrotation
			JOINT neck
			{
				OFFSET 0.000000 10.207942 -0.272212 
				CHANNELS 3 Xrotation Zrotation Yrotation
				JOINT head
				{
					OFFSET 0.000000 3.130431 0.000000 
					CHANNELS 3 Xrotation Zrotation Yrotation
					End Site
					{
						OFFSET 0.000000 3.130435 0.000000 
					}
				}
			}
			JOINT lCollar
			{
				OFFSET 3.470700 6.669187 -0.816635 
				CHANNELS 3 Yrotation Zrotation Xrotation
				JOINT lShldr
				{
					OFFSET 3.198488 0.000000 0.000000 
					CHANNELS 3 Zrotation Yrotation Xrotation
					JOINT lForeArm
					{
						OFFSET 10.139888 0.000000 0.000000 
						CHANNELS 3 Yrotation Zrotation Xrotation
						JOINT lHand
						{
							OFFSET 8.370511 0.000000 0.000000 
							CHANNELS 3 Zrotation Yrotation Xrotation
							End Site
							{
								OFFSET 4.083176 0.000000 0.000000 
							}
						}
					}
				}
			}
			JOINT rCollar
			{
				OFFSET -3.470700 6.669187 -0.816635 
				CHANNELS 3 Yrotation Zrotation Xrotation
				JOINT rShldr
				{
					OFFSET -3.198488 0.000000 0.000000 
					CHANNELS 3 Zrotation Yrotation Xrotation
					JOINT rForeArm
					{
						OFFSET -10.139888 0.000000 0.000000 
						CHANNELS 3 Yrotation Zrotation Xrotation
						JOINT rHand
						{
							OFFSET -8.370511 0.000000 0.000000 
							CHANNELS 3 Zrotation Yrotation Xrotation
							End Site
							{
								OFFSET -4.083176 0.000000 0.000000 
							}
						}
					}
				}
			}
		}
	}
	JOINT lThigh
	{
		OFFSET 5.308129 -1.633274 1.361059 
		CHANNELS 3 Xrotation Zrotation Yrotation
		JOINT lShin
		{
			OFFSET -2.041588 -20.007561 0.000000 
			CHANNELS 3 Xrotation Zrotation Yrotation
			JOINT lFoot
			{
				OFFSET 0.000000 -19.190928 -1.224953 
				CHANNELS 3 Xrotation Yrotation Zrotation
				End Site
				{
					OFFSET 0.000000 -2.449906 4.627600 
				}
			}
		}
	}
	JOINT rThigh
	{
		OFFSET -5.308129 -1.633274 1.361059 
		CHANNELS 3 Xrotation Zrotation Yrotation
		JOINT rShin
		{
			OFFSET 2.041588 -20.007561 0.000000 
			CHANNELS 3 Xrotation Zrotation Yrotation
			JOINT rFoot
			{
				OFFSET 0.000000 -19.190928 -1.224953 
				CHANNELS 3 Xrotation Yrotation Zrotation
				End Site
				{
					OFFSET 0.000000 -2.449906 4.627600 
				}
			}
		}
	}
}
MOTION
Frames: 6
Frame Time: 0.033333
-84.792793 49.857025 34.993568 -2.558908 -0.897542 -91.366142 0.000000 0.000000 0.000000 -0.400399 -0.371085 -2.243501 10.076054 0.114280 -4.729732 21.621229 0.256896 -2.128065 -6.386847 -4.454364 0.134651 -59.739395 13.810139 12.879632 -59.046253 -8.938334 6.629506 7.126838 10.976861 -3.130417 1.203138 0.528290 0.232414 56.756104 -17.026337 19.391840 76.580978 -1.339424 41.303013 -38.743565 -17.211582 1.188432 -7.128121 -1.640544 4.618953 21.273457 -5.382671 5.550347 -9.682700 -0.292580 3.636517 -15.699634 -8.601195 -5.965206 28.820253 -0.764165 -18.423220 -5.213327 -0.194266 4.581470 
-85.646507 49.817764 35.091854 -2.666137 -0.546283 -91.009720 0.000000 0.000000 0.000000 -0.458985 -0.097653 -2.382030 9.931996 0.300802 -4.759977 21.289122 -0.171490 -2.040584 -6.654515 -4.412200 0.106353 -58.864544 13.680724 13.620902 -58.721745 -9.141213 7.074461 7.300176 10.988539 -3.110139 1.453941 0.314267 0.194089 55.661388 -17.286669 21.718517 76.931160 -1.506797 41.674900 -40.541294 -17.335037 1.484305 -6.314100 -1.903439 4.567999 21.142334 -5.332550 5.230309 -10.815121 -0.329515 3.618798 -19.283792 -7.869649 -3.785564 26.201815 -1.076721 -16.836288 -2.368937 0.005699 -0.387205 
-86.524269 49.763145 35.199825 -2.802745 -0.156063 -90.129082 0.000000 0.000000 0.000000 -0.585941 0.195302 -2.765669 9.742717 0.464656 -4.854758 21.055027 -0.419581 -1.850527 -7.024421 -4.291880 0.028756 -58.428020 13.600601 14.171021 -58.033897 -9.475219 7.630346 7.157269 11.233413 -3.107384 1.271747 -0.134813 0.100241 55.052044 -17.917238 23.723768 77.580208 -1.819126 42.020599 -41.687843 -17.109156 1.552268 -5.574052 -2.235580 4.401376 21.171780 -5.195960 4.579555 -11.951816 -0.349573 3.652224 -21.442406 -7.752839 -2.166902 22.368584 -1.016499 -13.959596 -0.180060 -0.016830 -1.636718 
-87.446953 49.676689 35.292698 -2.841809 0.165811 -88.709404 0.000000 0.000000 0.000000 -0.732455 0.546830 -3.219881 9.579284 0.840103 -5.170022 21.006977 -0.763017 -1.769481 -7.616633 -3.906254 -0.040517 -58.378086 13.601064 14.752728 -57.261021 -9.937960 7.691838 6.934818 11.786189 -3.103653 0.875894 -0.162191 -0.003882 54.416592 -19.226517 25.000555 78.736214 -2.109384 41.349220 -42.604256 -16.520594 1.458343 -4.653553 -2.303359 4.327953 21.189993 -5.077846 3.196969 -13.271691 -0.425932 3.800002 -22.418308 -8.104302 -1.149168 17.831329 -0.664038 -11.251263 1.189157 -0.025400 -0.591933 
-88.395798 49.567707 35.353355 -2.998248 0.663154 -86.948792 0.000000 0.000000 0.000000 -1.093830 0.693233 -3.606985 9.441145 1.106142 -5.623210 20.773636 -1.069175 -1.822505 -8.333942 -3.653870 -0.342703 -58.517960 13.876639 15.314018 -56.572563 -10.441644 7.727614 6.437725 12.398941 -3.107584 0.418624 -0.180569 -0.321825 53.869450 -21.385841 25.648970 80.062637 -2.565509 41.374748 -43.243145 -16.496647 1.537325 -3.924659 -2.577285 4.029552 21.226343 -4.866076 1.750752 -14.504416 -0.475974 3.872838 -23.459364 -8.923119 -0.271473 13.873207 -0.478993 -8.262527 3.131166 0.012810 0.417955 
-89.415497 49.465771 35.390606 -3.135336 1.092113 -85.079338 0.000000 0.000000 0.000000 -1.435743 0.946968 -4.056933 9.410453 1.134459 -5.890154 20.264599 -0.717306 -1.866896 -8.872631 -3.702157 -0.615377 -58.824116 14.506938 15.743340 -56.099365 -10.766588 8.279963 6.103628 12.895470 -3.117729 -0.026712 -0.379038 -0.607894 53.392212 -23.924202 26.141768 81.625237 -3.117102 41.209763 -43.258759 -16.645042 1.590264 -2.906261 -2.663129 3.746978 21.043667 -4.525019 0.227889 -15.692427 -0.514094 3.819047 -23.833548 -9.871284 0.397304 9.880453 -0.109250 -4.052320 5.035300 0.056739 1.364485 
